<?xml version="1.0" encoding="utf-8"?>
<svg version="1.1" id="Layer_1" xmlns="http://www.w3.org/2000/svg" x="0px" y="0px"
     viewBox="0 0 512 512" style="enable-background:new 0 0 512 512;" xml:space="preserve">
<style type="text/css">
	.icon{fill:#000000;}
</style>
    <circle cx="256" cy="256" r="244" stroke="black" stroke-width="20px" fill="none" />
    <g>
  <path class="icon" transform="translate(70, 80)"
        d="M205.400,137.988 C210.553,115.955 235.246,21.217 239.634,4.113 C240.511,3.181 242.027,0.851 244.272,0.831 C261.092,0.681 261.854,0.760 278.703,1.042 C281.451,1.088 282.479,2.418 283.139,4.113 C288.644,27.982 310.537,115.104 315.946,137.988 C330.982,137.878 340.887,137.975 360.164,137.988 C366.203,140.277 366.372,162.686 360.877,165.064 C341.349,164.961 336.245,165.171 322.364,165.064 C324.925,174.967 325.937,179.898 329.496,192.892 C345.936,192.779 345.928,192.882 360.877,192.892 C366.278,195.642 366.464,217.897 360.877,219.968 C351.745,219.810 348.664,219.745 335.915,219.968 C344.560,257.570 357.505,297.882 353.745,299.691 C350.370,303.821 327.113,302.680 315.946,301.947 C313.690,297.622 301.907,247.118 295.976,219.968 C271.730,219.968 246.050,219.968 221.804,219.968 C205.299,286.615 204.695,299.810 197.555,302.699 C184.648,302.887 184.804,302.586 169.740,302.699 C162.602,300.430 164.089,294.572 144.779,219.968 C134.126,220.050 81.034,219.762 69.893,219.968 C58.464,264.598 51.592,303.139 47.071,302.699 C18.736,302.786 11.631,304.797 10.698,296.682 C13.525,284.518 24.120,240.390 29.573,219.837 C21.629,219.719 12.091,219.968 4.279,219.968 C-0.501,217.877 -0.707,195.474 5.706,192.892 C15.499,193.138 36.373,192.892 36.373,192.892 L43.505,165.064 C43.505,165.064 15.369,164.941 4.992,165.064 C0.445,164.326 -3.467,142.018 4.992,137.988 C23.450,137.992 29.187,138.184 49.924,137.988 C55.842,115.851 83.393,3.245 84.870,2.609 C86.664,-1.366 127.418,-0.327 126.949,2.609 C137.459,41.735 157.700,121.843 161.895,137.988 C176.115,138.007 180.116,137.988 205.400,137.988 ZM243.200,137.988 C261.373,137.865 261.447,137.884 276.428,137.781 C271.339,115.333 268.237,102.261 260.316,71.803 C254.650,94.239 246.291,127.374 243.200,137.988 ZM106.266,71.051 C101.037,91.857 95.092,117.182 89.863,137.988 C100.559,137.988 112.686,137.988 123.383,137.988 C116.970,111.525 111.582,92.269 106.266,71.051 ZM83.297,165.244 C80.133,178.157 79.816,178.524 76.312,192.892 C96.042,192.892 117.917,192.892 137.647,192.892 C134.499,179.694 134.736,179.659 131.228,165.064 C115.539,165.064 99.133,165.064 83.297,165.244 ZM197.555,165.064 C188.522,165.064 178.060,165.064 169.027,165.064 C172.175,178.227 171.896,176.409 176.159,192.892 C182.265,192.885 186.606,192.990 190.423,192.892 C193.921,179.953 193.712,181.109 197.555,165.064 ZM236.068,165.064 C233.928,173.838 231.788,184.118 229.649,192.892 C249.141,192.892 270.065,192.892 289.557,192.892 C286.643,180.089 286.661,181.927 283.139,165.064 C267.925,165.064 251.281,165.064 236.068,165.064 Z"/>
</g>
</svg>
