<?xml version="1.0" standalone="no"?>
<!DOCTYPE svg PUBLIC "-//W3C//DTD SVG 20010904//EN"
 "http://www.w3.org/TR/2001/REC-SVG-20010904/DTD/svg10.dtd">
<svg version="1.0" xmlns="http://www.w3.org/2000/svg"
 width="471.000000pt" height="458.000000pt" viewBox="0 0 471.000000 458.000000"
 preserveAspectRatio="xMidYMid meet">

<g transform="translate(0.000000,458.000000) scale(0.100000,-0.100000)"
fill="#000000" stroke="none">
<path d="M2175 4574 c-16 -2 -73 -9 -125 -15 -275 -31 -603 -137 -855 -276
-636 -354 -1061 -958 -1172 -1668 -25 -155 -24 -499 0 -650 23 -137 78 -351
118 -458 245 -645 785 -1160 1449 -1380 259 -87 478 -121 765 -121 393 0 717
74 1060 244 303 149 560 350 772 602 147 176 299 436 382 655 42 112 97 325
118 463 24 157 24 491 0 645 -62 391 -215 748 -450 1051 -376 482 -921 798
-1538 889 -99 15 -460 28 -524 19z m515 -160 c918 -139 1650 -818 1834 -1702
l26 -123 -82 -79 c-83 -78 -83 -78 -104 -59 -36 33 -124 15 -124 -26 0 -8 -12
-17 -27 -20 -91 -19 -252 -62 -338 -92 -100 -34 -322 -138 -402 -188 l-42 -26
14 35 c8 20 15 55 15 80 0 42 3 46 48 74 208 134 217 311 25 499 l-73 71 26
84 c61 193 170 412 247 495 l40 44 -58 85 c-205 302 -515 504 -863 564 -192
33 -390 26 -605 -22 -108 -24 -101 -16 -112 -123 -9 -91 -61 -335 -100 -474
-38 -129 -82 -228 -167 -369 -47 -79 -52 -83 -82 -80 -29 3 -31 5 -28 39 3 28
-4 45 -31 81 l-34 45 113 52 c62 29 121 62 130 72 10 11 19 42 22 73 l4 54
-78 7 c-61 6 -117 2 -248 -17 -162 -23 -169 -23 -207 -6 -35 15 -44 15 -91 3
-29 -7 -74 -11 -103 -8 -33 4 -63 0 -88 -10 -41 -18 -127 -82 -198 -149 -83
-78 -169 -252 -169 -341 0 -38 -23 -77 -98 -167 -2 -3 -24 17 -47 43 l-44 48
-21 -73 c-12 -40 -26 -91 -33 -113 -6 -22 -12 -42 -14 -45 -2 -2 -17 11 -34
30 -38 45 -41 39 -68 -104 -107 -567 21 -1031 356 -1283 223 -168 496 -249
871 -260 181 -6 182 -6 182 -29 0 -24 -5 -25 -100 -40 -191 -28 -417 -150
-644 -348 l-56 -48 -93 75 c-854 694 -1045 1895 -447 2802 206 311 487 564
820 738 250 131 548 219 831 247 127 12 420 4 549 -16z m71 -420 c52 -9 141
-31 198 -50 101 -33 241 -99 241 -113 0 -4 -21 -34 -46 -67 -80 -101 -178
-256 -239 -375 -32 -63 -59 -115 -60 -117 -1 -1 -31 9 -67 22 -112 42 -239 70
-416 92 -44 5 -53 9 -48 23 2 9 27 80 55 158 46 131 82 278 96 396 l6 47 93 0
c51 0 135 -7 187 -16z m852 -451 c15 -20 27 -42 27 -49 0 -7 -25 -50 -56 -96
-77 -114 -167 -297 -218 -442 -6 -17 -12 -14 -56 29 l-49 48 25 64 c61 163
252 484 287 483 7 -1 24 -17 40 -37z m-1749 -119 c25 -9 19 -32 -11 -48 -16
-7 -67 -25 -115 -40 -47 -14 -88 -31 -90 -38 -6 -17 -34 -3 -54 27 -23 35 -11
55 42 73 64 22 199 37 228 26z m-457 -41 c44 -21 253 -223 253 -244 0 -12 -16
-19 -62 -28 -35 -6 -86 -23 -114 -38 l-51 -27 -76 37 c-85 40 -143 78 -200
131 -21 20 -39 36 -40 36 -1 0 2 -44 7 -99 12 -137 4 -178 -50 -251 -40 -55
-52 -80 -39 -80 14 0 82 40 97 56 30 35 59 101 65 152 l6 50 54 -35 c30 -19
69 -41 87 -48 29 -12 32 -18 28 -44 -5 -37 5 -38 88 -16 30 8 75 15 100 15 55
0 125 -37 125 -65 0 -18 -9 -21 -71 -26 -58 -4 -90 -14 -170 -53 -54 -26 -124
-62 -154 -81 -49 -29 -61 -32 -111 -28 -73 7 -94 -5 -114 -67 -16 -48 -17 -49
-48 -43 -89 17 -277 116 -277 146 0 23 21 77 31 77 4 0 15 -12 23 -27 l14 -28
6 25 c23 111 32 145 57 213 73 202 223 376 326 377 21 1 63 7 93 15 73 18 76
18 117 -2z m1058 -77 c144 -26 241 -62 452 -167 207 -104 214 -121 16 -43 -61
24 -116 44 -121 44 -13 0 -36 -66 -28 -79 3 -5 40 -12 82 -16 89 -8 221 -42
334 -86 88 -33 100 -49 24 -30 -200 51 -370 72 -769 95 -341 21 -438 31 -510
55 l-60 20 143 -2 144 -3 34 68 c34 68 34 68 77 68 23 0 121 -9 217 -20 96
-10 176 -18 178 -16 5 5 -153 47 -238 63 -41 7 -157 16 -257 20 -147 5 -183 9
-183 20 0 7 10 18 23 23 32 15 335 4 442 -14z m-555 -336 c58 -17 123 -35 146
-40 33 -8 357 -59 382 -60 4 -1 -11 -10 -33 -22 -63 -32 -115 -90 -115 -128 0
-22 43 -8 73 24 85 91 150 70 267 -84 61 -80 74 -91 83 -67 11 30 -70 194
-113 231 -40 33 -35 33 147 -5 185 -38 269 -62 358 -104 139 -65 195 -124 195
-206 0 -55 -6 -59 -89 -59 -48 0 -64 -5 -94 -28 -50 -38 -65 -68 -45 -89 21
-20 54 -12 94 22 29 25 55 30 124 26 50 -4 87 -42 101 -106 10 -45 9 -57 -6
-89 -33 -68 -138 -124 -250 -132 -106 -8 -115 -11 -115 -39 0 -20 5 -25 25
-25 52 0 40 -28 -49 -111 -195 -183 -350 -418 -429 -651 -4 -10 -16 -18 -28
-18 -25 0 -120 49 -164 84 l-30 24 21 29 c27 36 45 39 116 17 57 -17 59 -17
73 2 8 10 15 22 15 25 0 3 -31 16 -69 29 -67 23 -69 25 -48 39 32 21 97 83
108 104 8 13 -10 8 -68 -21 -78 -39 -79 -39 -233 -46 -164 -8 -212 -2 -310 36
-70 27 -168 96 -215 150 l-36 43 68 8 c87 9 179 33 217 55 29 17 30 17 110
-24 121 -63 182 -78 294 -71 74 4 105 11 155 35 140 66 247 176 247 254 0 45
-2 45 -90 17 -151 -48 -261 -14 -392 121 -84 86 -125 113 -166 108 -21 -2 -28
-9 -30 -31 -3 -23 2 -30 30 -41 18 -8 57 -44 89 -83 82 -100 238 -183 344
-183 25 0 45 -4 45 -9 0 -35 -150 -99 -252 -108 -89 -9 -206 29 -326 104 l-53
34 -42 -36 c-52 -45 -101 -59 -208 -60 -78 0 -91 3 -154 35 -79 40 -163 117
-194 177 -19 38 -27 73 -17 73 2 0 39 -17 82 -37 107 -51 170 -52 267 -3 71
35 130 91 125 117 -7 34 -34 38 -68 9 -52 -43 -109 -68 -171 -73 l-57 -6 -7
117 c-4 63 -4 146 -1 183 19 185 88 367 150 397 60 28 94 19 187 -52 50 -38
59 -30 34 33 -19 51 -83 113 -125 122 -20 4 -30 12 -30 24 0 26 21 69 34 69 6
0 58 -14 116 -30z m1154 -111 c320 -42 526 -166 526 -319 0 -67 -49 -143 -115
-177 -24 -13 -30 -13 -34 -2 -6 18 -52 64 -70 70 -11 4 -9 13 8 47 56 110 2
195 -174 277 -88 41 -172 68 -305 100 l-105 25 95 -5 c52 -3 130 -10 174 -16z
m-1464 -57 c0 -5 -18 -55 -39 -113 -53 -139 -71 -250 -71 -432 l0 -148 -22 7
c-43 13 -94 43 -127 73 l-32 30 -9 -25 c-13 -34 -12 -50 5 -107 36 -118 101
-212 199 -285 l61 -45 -37 6 c-59 9 -107 37 -175 101 -117 109 -156 204 -157
379 0 84 -3 117 -12 117 -30 0 -20 96 17 158 10 18 19 35 19 37 0 2 -26 5 -57
7 -53 3 -58 5 -61 28 -2 14 4 34 12 45 12 17 24 20 86 17 67 -2 78 1 163 41
51 24 119 60 152 80 59 36 85 45 85 29z m-877 -120 c122 -97 256 -152 368
-152 32 0 59 -4 59 -8 0 -4 -9 -36 -21 -70 l-21 -62 -58 0 c-69 0 -169 29
-265 77 -81 41 -170 96 -201 125 l-22 19 20 77 c28 114 26 111 54 75 13 -17
52 -54 87 -81z m3793 -300 c-93 -42 -102 -8 -18 69 l57 52 5 -49 5 -49 -49
-23z m-159 -57 c2 -6 -31 -16 -73 -23 -124 -19 -204 -80 -204 -154 0 -37 37
-83 56 -70 6 4 21 26 33 49 42 84 98 132 169 148 30 6 33 4 48 -31 14 -34 14
-38 -1 -46 -36 -21 -87 -73 -106 -109 -25 -50 -24 -105 4 -159 32 -64 43 -61
49 13 3 34 13 78 23 97 19 38 64 90 77 90 17 0 8 -99 -13 -135 -19 -32 -20
-40 -9 -83 12 -49 40 -102 72 -138 19 -22 19 -23 -20 -140 -22 -66 -61 -165
-87 -220 -45 -98 -48 -102 -83 -108 -70 -11 -305 -6 -410 10 -86 12 -107 13
-113 2 -16 -25 -10 -141 10 -178 25 -47 104 -87 204 -102 l77 -12 0 -52 c0
-36 -6 -59 -19 -75 l-18 -23 -7 22 c-9 27 -12 27 -61 2 -22 -11 -52 -20 -67
-20 -31 0 -34 -8 -15 -34 10 -14 24 -17 60 -15 43 4 45 3 29 -12 -23 -22 -107
-49 -154 -49 -69 0 -60 -56 10 -62 l37 -4 -27 -12 c-88 -38 -301 -33 -413 9
-239 89 -421 376 -402 633 18 234 143 457 353 626 196 157 490 286 814 355
118 25 171 28 177 10z m211 -32 c-3 -34 -6 -38 -38 -44 -38 -8 -50 1 -50 37 0
15 9 24 33 32 55 17 58 15 55 -25z m-4072 -11 c5 -4 15 -70 22 -147 7 -90 20
-172 37 -230 136 -477 572 -765 1158 -765 l108 0 -3 -27 -3 -28 -140 2 c-566
6 -988 258 -1149 687 -38 100 -67 249 -73 379 -5 96 -3 121 8 128 17 11 21 11
35 1z m2717 -365 c-138 -144 -222 -293 -269 -475 -66 -254 -8 -496 158 -665
l67 -68 -79 7 -78 6 -42 -38 -41 -39 -192 95 c-106 52 -235 110 -287 129 -52
19 -107 46 -123 60 -72 66 -148 224 -163 339 l-7 53 94 -62 c136 -89 243 -139
298 -139 l46 1 28 63 c48 106 172 308 269 438 105 139 322 364 359 371 13 2
28 5 33 6 5 0 -27 -36 -71 -82z m-1259 -526 c-20 -45 -35 -82 -33 -84 76 -46
178 -121 174 -127 -3 -5 -39 -28 -80 -51 -41 -24 -75 -46 -75 -49 0 -4 9 -15
21 -26 12 -10 27 -31 35 -46 14 -27 14 -28 -14 -28 -29 0 -69 34 -91 78 -11
20 -7 28 41 78 l53 56 -30 21 c-59 43 -95 79 -95 96 0 36 120 197 128 172 2
-5 -14 -46 -34 -90z m2148 -155 c98 0 178 -3 178 -5 0 -7 -130 -200 -139 -205
-5 -3 -14 7 -21 23 -14 34 -43 47 -123 55 -62 7 -121 27 -148 52 -18 16 -34
78 -25 93 3 5 27 4 53 -1 27 -6 128 -11 225 -12z m-2011 -346 c194 -22 382
-88 657 -231 l174 -90 54 41 c30 22 61 43 69 46 8 3 50 -14 92 -39 134 -77
265 -139 280 -132 12 4 14 15 9 51 l-6 46 33 -6 c17 -4 72 -9 121 -13 l89 -6
-95 -61 c-114 -73 -267 -151 -397 -201 -91 -35 -95 -36 -112 -18 -10 10 -27
43 -38 73 -17 48 -20 51 -20 24 -1 -17 6 -53 14 -80 8 -27 15 -50 15 -51 0 -6
-276 -66 -365 -79 -152 -23 -462 -23 -619 0 -234 34 -475 107 -681 207 -107
52 -265 146 -265 157 0 9 168 128 247 176 161 96 350 166 498 185 99 12 147
12 246 1z"/>
<path d="M1303 3304 c-8 -21 67 -97 132 -135 28 -16 53 -29 58 -29 4 0 -25 40
-65 89 -73 90 -110 112 -125 75z"/>
<path d="M3035 2637 c-38 -14 -61 -28 -63 -40 -5 -27 25 -31 89 -12 69 21 88
38 69 60 -16 19 -22 18 -95 -8z"/>
<path d="M1771 2611 c-16 -28 -14 -46 7 -64 25 -22 45 -21 67 3 15 16 17 26 9
48 -12 35 -67 44 -83 13z"/>
<path d="M2375 2594 c-19 -20 -16 -63 6 -77 24 -15 66 -1 72 25 8 28 -17 68
-43 68 -10 0 -26 -7 -35 -16z"/>
<path d="M3110 2552 c-27 -11 -46 -25 -48 -36 -7 -33 13 -40 65 -21 59 22 76
36 67 58 -8 21 -26 21 -84 -1z"/>
<path d="M1928 2415 c-34 -19 -72 -99 -71 -148 4 -78 50 -113 141 -104 59 6
82 20 82 48 0 17 -8 19 -63 19 -36 0 -68 5 -75 12 -24 24 -6 96 32 127 9 8 16
24 16 37 0 28 -21 31 -62 9z"/>
<path d="M600 2651 c-13 -25 -4 -48 21 -56 38 -12 65 35 37 63 -18 18 -46 14
-58 -7z"/>
<path d="M3430 1750 c-8 -5 -20 -24 -26 -42 -6 -18 -18 -34 -27 -36 -19 -4
-22 19 -7 49 8 15 7 21 -4 25 -23 9 -56 -15 -62 -44 -4 -22 -20 -35 -71 -61
-82 -43 -115 -89 -115 -158 1 -87 30 -136 91 -153 57 -16 61 -21 67 -103 l7
-77 -30 0 c-31 0 -74 27 -107 68 -11 14 -22 20 -28 14 -12 -12 7 -128 27 -158
16 -25 69 -44 123 -44 25 0 35 -5 41 -24 16 -42 71 -43 63 -1 -6 33 14 32 45
-1 28 -30 59 -28 56 4 -2 19 2 22 30 22 39 0 68 27 92 82 23 57 19 118 -13
179 -22 43 -38 58 -90 87 -67 37 -71 44 -56 134 l6 37 49 -25 c27 -13 55 -33
61 -44 22 -34 28 -22 27 53 -2 113 -6 120 -68 130 -51 9 -53 10 -47 35 12 49
11 56 -4 59 -8 2 -22 -1 -30 -7z m-57 -257 c-7 -67 -7 -67 -28 -60 -29 12 -16
117 15 117 16 0 18 -7 13 -57z m-106 -15 c-3 -20 -4 -21 -11 -5 -5 9 -5 29 0
45 7 25 8 26 11 5 3 -13 3 -33 0 -45z m108 -210 c2 -7 5 -37 8 -65 4 -50 3
-53 -19 -53 -21 0 -24 5 -24 34 0 18 -3 48 -6 65 -6 27 -4 31 15 31 12 0 23
-6 26 -12z m101 -43 c14 -21 15 -31 6 -50 -20 -44 -42 -31 -42 25 0 55 11 63
36 25z"/>
<path d="M4265 1423 c-3 -21 -13 -48 -20 -59 -16 -24 -11 -34 16 -34 38 0 68
111 33 124 -9 3 -17 6 -19 6 -1 0 -6 -17 -10 -37z"/>
<path d="M3776 953 c-33 -14 -83 -27 -113 -30 -47 -5 -53 -8 -53 -29 0 -16 7
-24 28 -28 36 -8 122 9 172 34 33 17 40 25 40 50 0 35 2 35 -74 3z"/>
<path d="M3419 834 c-29 -35 37 -72 133 -73 64 -1 98 13 98 41 0 22 -3 23 -87
23 -49 0 -97 6 -109 13 -18 9 -24 9 -35 -4z"/>
<path d="M2650 1076 c-28 -35 11 -93 48 -70 35 22 22 84 -18 84 -10 0 -23 -7
-30 -14z"/>
<path d="M2772 948 c-17 -17 -15 -44 4 -62 22 -23 41 -20 59 8 13 19 14 29 5
45 -12 23 -49 28 -68 9z"/>
<path d="M2890 836 c-28 -35 11 -93 48 -70 35 22 22 84 -18 84 -10 0 -23 -7
-30 -14z"/>
</g>
</svg>
