<?xml version="1.0" encoding="utf-8"?>
<svg version="1.1" id="Layer_1" xmlns="http://www.w3.org/2000/svg" x="0px" y="0px"
     viewBox="-15 -30 527 512" style="enable-background:new 0 0 512 512;" xml:space="preserve">
<style type="text/css">
	.icon{fill:#000000;}
</style>
    <g>
  <path class="icon"
        d="M282.414,189.473 C289.487,159.228 323.385,29.179 329.407,5.700 C330.611,4.421 332.692,1.222 335.775,1.194 C358.863,0.989 359.909,1.098 383.038,1.485 C386.811,1.548 388.222,3.374 389.127,5.700 C396.685,38.466 426.738,158.059 434.162,189.473 C454.802,189.323 468.399,189.455 494.861,189.473 C503.151,192.616 503.383,223.377 495.840,226.641 C469.034,226.500 462.027,226.788 442.973,226.641 C446.488,240.235 447.878,247.005 452.763,264.841 C475.330,264.686 475.319,264.827 495.840,264.841 C503.254,268.616 503.510,299.167 495.840,302.008 C483.304,301.792 479.075,301.702 461.574,302.008 C473.442,353.626 491.212,408.963 486.050,411.446 C481.417,417.116 449.492,415.549 434.162,414.543 C431.066,408.606 414.891,339.278 406.749,302.008 C373.466,302.008 338.215,302.008 304.932,302.008 C282.275,393.496 281.446,411.610 271.645,415.576 C253.926,415.833 254.142,415.421 233.463,415.576 C223.665,412.460 225.705,404.420 199.198,302.008 C184.574,302.121 111.694,301.726 96.401,302.008 C80.712,363.274 71.279,416.179 65.072,415.576 C26.176,415.695 16.423,418.455 15.142,407.316 C19.023,390.618 33.567,330.042 41.052,301.828 C30.148,301.667 17.054,302.008 6.331,302.008 C-0.231,299.139 -0.513,268.385 8.289,264.841 C21.733,265.178 50.387,264.841 50.387,264.841 L60.177,226.641 C60.177,226.641 21.554,226.472 7.310,226.641 C1.069,225.628 -4.302,195.006 7.310,189.473 C32.647,189.479 40.523,189.742 68.988,189.473 C77.113,159.085 114.932,4.509 116.960,3.636 C119.422,-1.821 175.367,-0.394 174.722,3.636 C189.150,57.344 216.935,167.311 222.694,189.473 C242.214,189.500 247.706,189.473 282.414,189.473 ZM334.302,189.473 C359.249,189.304 359.350,189.331 379.916,189.189 C372.930,158.375 368.671,140.430 357.799,98.619 C350.021,129.419 338.546,174.903 334.302,189.473 ZM146.331,97.587 C139.152,126.148 130.992,160.912 123.813,189.473 C138.497,189.473 155.143,189.473 169.827,189.473 C161.025,153.147 153.628,126.714 146.331,97.587 ZM114.801,226.888 C110.457,244.613 110.023,245.117 105.212,264.841 C132.295,264.841 162.324,264.841 189.408,264.841 C185.086,246.724 185.412,246.676 180.596,226.641 C159.060,226.641 136.538,226.641 114.801,226.888 ZM271.645,226.641 C259.245,226.641 244.884,226.641 232.484,226.641 C236.805,244.710 236.423,242.215 242.274,264.841 C250.656,264.832 256.615,264.976 261.855,264.841 C266.656,247.079 266.369,248.666 271.645,226.641 ZM324.512,226.641 C321.575,238.685 318.638,252.797 315.701,264.841 C342.458,264.841 371.181,264.841 397.938,264.841 C393.937,247.267 393.962,249.790 389.127,226.641 C368.244,226.641 345.396,226.641 324.512,226.641 Z"/>
</g>
</svg>